<?xml version="1.0" encoding="UTF-8" standalone="no"?>
<svg
   xmlns:dc="http://purl.org/dc/elements/1.1/"
   xmlns:cc="http://creativecommons.org/ns#"
   xmlns:rdf="http://www.w3.org/1999/02/22-rdf-syntax-ns#"
   xmlns:svg="http://www.w3.org/2000/svg"
   xmlns="http://www.w3.org/2000/svg"
   xmlns:sodipodi="http://sodipodi.sourceforge.net/DTD/sodipodi-0.dtd"
   xmlns:inkscape="http://www.inkscape.org/namespaces/inkscape"
   width="210mm"
   height="297mm"
   viewBox="0 0 210 297"
   version="1.1"
   id="svg8"
   inkscape:version="1.0 (4035a4fb49, 2020-05-01)"
   sodipodi:docname="mockup.svg">
  <defs
     id="defs2">
    <clipPath
       id="clipPath849"
       clipPathUnits="userSpaceOnUse">
      <path
         id="path847"
         d="M 0,768 H 1366 V 0 H 0 Z" />
    </clipPath>
    <clipPath
       id="clipPath885"
       clipPathUnits="userSpaceOnUse">
      <path
         id="path883"
         d="m 741.748,549.621 h -13.336 c -0.677,-0.086 -1.662,-0.493 -1.76,-2.114 v 0 c -0.134,-2.227 -0.409,-5.163 -2.625,-7.421 v 0 c -1.709,-1.741 -3.92,-2.569 -6.219,-2.569 v 0 H 649.12 c -2.299,0 -4.51,0.828 -6.219,2.569 v 0 c -2.215,2.258 -2.49,5.194 -2.624,7.421 v 0 c -0.098,1.621 -1.083,2.028 -1.761,2.114 v 0 h -13.687 c -7.469,0 -11.317,-2.227 -13.231,-4.094 v 0 c -4.499,-4.392 -5.3,-8.587 -5.3,-18.199 v 0 -287.014 c 0,-9.612 0.801,-13.807 5.301,-18.199 v 0 c 1.913,-1.868 5.762,-4.095 13.234,-4.094 v 0 h 116.92 c 7.47,0 11.317,2.226 13.23,4.094 v 0 c 4.499,4.392 5.299,8.587 5.299,18.199 v 0 287.014 c 0,9.612 -0.8,13.807 -5.299,18.199 v 0 c -1.913,1.867 -5.762,4.094 -13.231,4.094 v 0 c -0.002,0 -0.003,0 -0.004,0" />
    </clipPath>
    <radialGradient
       id="radialGradient897"
       spreadMethod="pad"
       gradientTransform="matrix(0,-119.76137,119.76137,0,102.58817,232.67291)"
       gradientUnits="userSpaceOnUse"
       r="1"
       cy="0"
       cx="0"
       fy="0"
       fx="0">
      <stop
         id="stop891"
         offset="0"
         style="stop-opacity:1;stop-color:#f04970" />
      <stop
         id="stop893"
         offset="0.376344"
         style="stop-opacity:1;stop-color:#f05d70" />
      <stop
         id="stop895"
         offset="1"
         style="stop-opacity:1;stop-color:#f9a754" />
    </radialGradient>
    <clipPath
       id="clipPath907"
       clipPathUnits="userSpaceOnUse">
      <path
         id="path905"
         d="M 0,768 H 1366 V 0 H 0 Z" />
    </clipPath>
    <clipPath
       id="clipPath971"
       clipPathUnits="userSpaceOnUse">
      <path
         id="path969"
         d="m 744.61,542.8 h 9.001 v -4.729 h -9.001 z" />
    </clipPath>
  </defs>
  <sodipodi:namedview
     id="base"
     pagecolor="#ffffff"
     bordercolor="#666666"
     borderopacity="1.0"
     inkscape:pageopacity="0.0"
     inkscape:pageshadow="2"
     inkscape:zoom="0.49497475"
     inkscape:cx="526.16368"
     inkscape:cy="656.96541"
     inkscape:document-units="mm"
     inkscape:current-layer="layer1"
     inkscape:document-rotation="0"
     showgrid="false"
     showguides="false"
     inkscape:window-width="1920"
     inkscape:window-height="1001"
     inkscape:window-x="-9"
     inkscape:window-y="-9"
     inkscape:window-maximized="1" />
  <metadata
     id="metadata5">
    <rdf:RDF>
      <cc:Work
         rdf:about="">
        <dc:format>image/svg+xml</dc:format>
        <dc:type
           rdf:resource="http://purl.org/dc/dcmitype/StillImage" />
        <dc:title></dc:title>
      </cc:Work>
    </rdf:RDF>
  </metadata>
  <g
     inkscape:label="Layer 1"
     inkscape:groupmode="layer"
     id="layer1">
    <g
       transform="translate(800)"
       id="g84">
      <path
         d="m -665.54982,115.68345 c 0,-4.04848 -0.41734,-6.56625 -2.99085,-9.07838 -2.48532,-2.42641 -6.07131,-2.50896 -7.28627,-2.50896 h -41.24466 c -1.21462,0 -4.80095,0.0825 -7.28663,2.50896 -2.57351,2.51213 -2.99049,5.0299 -2.99049,9.07838 v 101.25216 c 0,4.04848 0.41698,6.5659 2.99049,9.07873 2.48568,2.42606 6.07201,2.50896 7.28663,2.50861 h 41.24466 c 1.21496,3.5e-4 4.80095,-0.0825 7.28627,-2.50861 2.57351,-2.51283 2.99085,-5.03025 2.99085,-9.07873 z"
         style="fill:#a6a6a6;fill-opacity:1;fill-rule:nonzero;stroke:none;stroke-width:0.352778"
         id="path853" />
      <path
         d="m -717.07174,228.01869 c -3.72851,0 -5.82683,-1.28623 -6.93173,-2.36467 -2.41406,-2.35691 -2.8388,-4.68912 -2.8388,-8.71855 V 115.68331 c 0,-4.02943 0.42474,-6.36129 2.8388,-8.7182 1.1049,-1.07879 3.20428,-2.36466 6.92926,-2.36466 h 41.24748 c 3.72745,0 5.82648,1.28587 6.93138,2.36466 2.41441,2.35656 2.83916,4.68877 2.83916,8.7182 v 101.25216 c 0,4.02943 -0.42475,6.36164 -2.83916,8.71855 -1.1049,1.07844 -3.20322,2.36467 -6.92256,2.36467 z"
         style="fill:#000000;fill-opacity:1;fill-rule:nonzero;stroke:none;stroke-width:0.352778"
         id="path857" />
      <path
         d="m -717.07174,228.01869 c -3.72851,0 -5.82683,-1.28623 -6.93173,-2.36467 -2.41406,-2.35691 -2.8388,-4.68912 -2.8388,-8.71855 V 115.68331 c 0,-4.02943 0.42474,-6.36129 2.8388,-8.7182 1.1049,-1.07879 3.20428,-2.36466 6.92926,-2.36466 h 41.24748 c 3.72745,0 5.82648,1.28587 6.93138,2.36466 2.41441,2.35656 2.83916,4.68877 2.83916,8.7182 v 101.25216 c 0,4.02943 -0.42475,6.36164 -2.83916,8.71855 -1.1049,1.07844 -3.20322,2.36467 -6.92256,2.36467 z"
         style="fill:none;stroke:#303030;stroke-width:0.264583;stroke-linecap:butt;stroke-linejoin:miter;stroke-miterlimit:10;stroke-dasharray:none;stroke-opacity:1"
         id="path861" />
      <path
         d="m -727.42252,120.87108 c -0.024,0 -0.0455,0.008 -0.0677,0.0138 v -0.005 c -0.007,0.002 -0.0138,0.006 -0.0212,0.009 -0.0159,0.005 -0.0303,0.0113 -0.0445,0.0187 -0.0169,0.009 -0.0321,0.0194 -0.0466,0.0314 -0.0116,0.01 -0.0233,0.0183 -0.0332,0.0296 -0.0148,0.0159 -0.0258,0.0346 -0.0363,0.0536 -0.006,0.0106 -0.0134,0.0201 -0.018,0.0318 -0.0127,0.0321 -0.0208,0.0667 -0.0208,0.10372 v 4.19417 c 0,0.037 0.008,0.0716 0.0208,0.10407 0.005,0.0113 0.012,0.0208 0.018,0.0318 0.0106,0.019 0.0215,0.0374 0.0363,0.0536 0.01,0.0113 0.0215,0.0201 0.0332,0.0296 0.0145,0.0116 0.0296,0.0222 0.0466,0.0314 0.0145,0.007 0.0286,0.0134 0.0445,0.0187 0.007,0.002 0.0138,0.007 0.0212,0.009 v -0.005 c 0.0222,0.006 0.0437,0.0137 0.0677,0.0137 h 0.15275 v -4.76814 z"
         style="fill:#a6a6a6;fill-opacity:1;fill-rule:nonzero;stroke:none;stroke-width:0.352778"
         id="path865" />
      <path
         d="m -727.42252,129.77025 c -0.024,0 -0.0455,0.008 -0.0677,0.0138 v -0.005 c -0.007,0.002 -0.0138,0.006 -0.0212,0.009 -0.0159,0.005 -0.0303,0.0113 -0.0445,0.0187 -0.0169,0.009 -0.0321,0.0194 -0.0466,0.031 -0.0116,0.01 -0.0233,0.0187 -0.0332,0.0296 -0.0148,0.0162 -0.0258,0.0346 -0.0363,0.0536 -0.006,0.0109 -0.0134,0.0205 -0.018,0.0321 -0.0127,0.0321 -0.0208,0.0667 -0.0208,0.10372 v 8.44832 c 0,0.037 0.008,0.0716 0.0208,0.10407 0.005,0.0116 0.012,0.0212 0.018,0.0317 0.0106,0.0194 0.0215,0.0374 0.0363,0.0536 0.01,0.0113 0.0215,0.0201 0.0332,0.0296 0.0148,0.012 0.0296,0.0226 0.0466,0.0314 0.0141,0.008 0.0289,0.0138 0.0448,0.019 0.007,0.002 0.0134,0.007 0.0208,0.009 v -0.005 c 0.0222,0.005 0.0437,0.0134 0.0677,0.0134 h 0.15275 v -9.02229 z"
         style="fill:#a6a6a6;fill-opacity:1;fill-rule:nonzero;stroke:none;stroke-width:0.352778"
         id="path869" />
      <path
         d="m -727.31143,141.17937 c -0.024,0 -0.0452,0.008 -0.0674,0.0138 v -0.005 c -0.008,0.002 -0.0141,0.006 -0.0215,0.009 -0.0155,0.005 -0.03,0.0109 -0.0441,0.0187 -0.0169,0.009 -0.0321,0.0194 -0.0469,0.0314 -0.0116,0.01 -0.0229,0.0183 -0.0328,0.0293 -0.0148,0.0162 -0.0258,0.0349 -0.0367,0.0543 -0.006,0.0106 -0.0131,0.0198 -0.0173,0.031 -0.0131,0.0325 -0.0212,0.067 -0.0212,0.10407 v 8.44832 c 0,0.037 0.008,0.0716 0.0212,0.10442 0.004,0.0113 0.0113,0.0205 0.0173,0.031 0.0109,0.0194 0.0219,0.0377 0.0367,0.0543 0.01,0.0109 0.0215,0.0198 0.0328,0.0293 0.0148,0.012 0.0296,0.0226 0.0469,0.0314 0.0141,0.008 0.0286,0.0138 0.0444,0.019 0.007,0.002 0.0134,0.007 0.0212,0.009 v -0.005 c 0.0222,0.005 0.0434,0.0134 0.0674,0.0134 h 0.0882 v -9.02229 z"
         style="fill:#a6a6a6;fill-opacity:1;fill-rule:nonzero;stroke:none;stroke-width:0.352778"
         id="path873" />
      <path
         d="m -665.17982,146.8345 c 0.0127,-0.0388 0.0215,-0.0797 0.0215,-0.12241 V 133.3023 c 0,-0.043 -0.009,-0.0836 -0.0215,-0.12242 -0.002,-0.006 -0.003,-0.0116 -0.005,-0.0176 -0.0145,-0.037 -0.0335,-0.0709 -0.0575,-0.1016 -0.003,-0.004 -0.006,-0.008 -0.01,-0.012 -0.054,-0.0649 -0.1277,-0.11254 -0.21308,-0.13335 -0.0303,-0.007 -0.061,-0.012 -0.0938,-0.012 h -0.12241 v 14.20777 h 0.12241 c 0.12383,0 0.23354,-0.0571 0.30692,-0.14535 0.004,-0.004 0.006,-0.008 0.01,-0.012 0.024,-0.0307 0.043,-0.0646 0.0575,-0.1016 0.002,-0.006 0.004,-0.0116 0.005,-0.0176"
         style="fill:#a6a6a6;fill-opacity:1;fill-rule:nonzero;stroke:none;stroke-width:0.352778"
         id="path877" />
    </g>
    <path
       d="m 124.1731,107.81901 h -4.70465 c -0.23883,0.0303 -0.58632,0.17392 -0.62089,0.74577 v 0 c -0.0473,0.78564 -0.14428,1.82139 -0.92604,2.61797 v 0 c -0.6029,0.61418 -1.38289,0.90628 -2.19392,0.90628 v 0 H 91.496 c -0.81104,0 -1.59103,-0.2921 -2.19393,-0.90628 v 0 c -0.7814,-0.79658 -0.87842,-1.83233 -0.92569,-2.61797 v 0 c -0.0346,-0.57185 -0.38206,-0.71543 -0.62124,-0.74577 v 0 h -4.82847 c -2.6349,0 -3.99238,0.78564 -4.6676,1.44427 v 0 c -1.58715,1.5494 -1.86972,3.0293 -1.86972,6.4202 v 0 101.25216 c 0,3.3909 0.28257,4.87081 1.87007,6.42021 v 0 c 0.67487,0.65898 2.03271,1.44462 4.66866,1.44427 v 0 h 41.24678 c 2.63525,0 3.99239,-0.78529 4.66725,-1.44427 v 0 c 1.58715,-1.5494 1.86937,-3.02931 1.86937,-6.42021 v 0 -101.25216 c 0,-3.3909 -0.28222,-4.8708 -1.86937,-6.4202 v 0 c -0.67486,-0.65863 -2.03271,-1.44427 -4.6676,-1.44427 v 0 c -7.1e-4,0 -0.001,0 -0.001,0"
       style="fill:#f1f1f1;stroke:none;stroke-width:0.352778;fill-opacity:1"
       id="path899" />
    <g
       transform="matrix(0.35277777,0,0,-0.35277777,-837.49911,301.71308)"
       id="g967" />
    <g
       transform="translate(100)"
       id="g275">
      <path
         d="m 11.22643,108.99824 c 0,0.52317 -0.4258,0.94756 -0.95144,0.94756 -0.52564,0 -0.95144,-0.42439 -0.95144,-0.94756 0,-0.52317 0.4258,-0.94756 0.95144,-0.94756 0.52564,0 0.95144,0.42439 0.95144,0.94756"
         style="fill:#2d2d2d;fill-opacity:1;fill-rule:nonzero;stroke:none;stroke-width:0.352778"
         id="path911" />
      <path
         d="m 10.60357,108.99824 c 0,0.18062 -0.14711,0.32738 -0.32879,0.32738 -0.18133,0 -0.32843,-0.14676 -0.32843,-0.32738 0,-0.18097 0.1471,-0.32738 0.32843,-0.32738 0.18168,0 0.32879,0.14641 0.32879,0.32738"
         style="fill:#000000;fill-opacity:1;fill-rule:nonzero;stroke:none;stroke-width:0.352778"
         id="path915" />
      <path
         d="m 7.36002,108.99824 c 0,0.2794 -0.22789,0.50588 -0.50765,0.50588 h -6.6548 c -0.28046,0 -0.508,-0.22648 -0.508,-0.50588 0,-0.2794 0.22754,-0.50588 0.508,-0.50588 h 6.6548 c 0.27976,0 0.50765,0.22648 0.50765,0.50588"
         style="fill:#2d2d2d;fill-opacity:1;fill-rule:nonzero;stroke:none;stroke-width:0.352778"
         id="path919" />
    </g>
    <g
       style="fill:#cfcfcf;fill-opacity:1"
       transform="translate(100)"
       id="g296">
      <g
         style="fill:#cfcfcf;fill-opacity:1"
         id="g178"
         transform="translate(400)">
        <path
           id="path923"
           style="fill:#cfcfcf;fill-opacity:1;fill-rule:nonzero;stroke:none;stroke-width:0.352778"
           d="m -418.05222,110.44018 c -0.17286,0 -0.31538,0.12347 -0.31538,0.33161 0,0.21802 0.14816,0.32491 0.32032,0.32491 0.16686,0 0.31997,-0.10583 0.31997,-0.31997 0,-0.21414 -0.14005,-0.33655 -0.32491,-0.33655 m -0.2734,1.08726 c 0.0212,0.0713 0.11006,0.1457 0.25858,0.1457 0.28258,0 0.38771,-0.2727 0.37853,-0.60678 h -0.0141 c -0.0476,0.12453 -0.17639,0.2353 -0.39052,0.2353 -0.28046,0 -0.51047,-0.19226 -0.51047,-0.52987 0,-0.33867 0.24412,-0.54116 0.56444,-0.54116 0.28963,0 0.58103,0.17145 0.58103,0.79622 0,0.5648 -0.19756,0.85549 -0.61384,0.85549 -0.30585,0 -0.47095,-0.17428 -0.49106,-0.3549 z" />
        <path
           id="path927"
           style="fill:#cfcfcf;fill-opacity:1;fill-rule:nonzero;stroke:none;stroke-width:0.352778"
           d="m -416.93169,111.51591 c 0.10266,0 0.18133,0.0734 0.18133,0.18168 0,0.10478 -0.0787,0.17674 -0.18133,0.17674 -0.0956,0 -0.17533,-0.072 -0.17533,-0.17674 0,-0.1083 0.0783,-0.18168 0.17533,-0.18168 m 0,-0.77999 c 0.10266,0 0.18133,0.0744 0.18133,0.18168 0,0.10477 -0.0787,0.17815 -0.18133,0.17815 -0.0956,0 -0.17533,-0.0734 -0.17533,-0.17815 0,-0.1083 0.0783,-0.18168 0.17533,-0.18168" />
        <path
           id="path931"
           style="fill:#cfcfcf;fill-opacity:1;fill-rule:nonzero;stroke:none;stroke-width:0.352778"
           d="m -415.66321,111.32608 v -0.85443 h -0.0127 c -0.17886,0.26635 -0.36936,0.56233 -0.53093,0.84385 v 0.0106 z m 0.22789,-1.06151 v 1.06151 h 0.20462 v 0.21519 h -0.20462 v 0.31221 h -0.22789 v -0.31221 h -0.77505 v -0.21872 c 0.19649,-0.35383 0.42898,-0.7052 0.65123,-1.05798 z" />
        <path
           id="path935"
           style="fill:#cfcfcf;fill-opacity:1;fill-rule:nonzero;stroke:none;stroke-width:0.352778"
           d="m -414.57319,111.85334 v -1.32821 h -0.012 l -0.36795,0.26212 v -0.24695 l 0.37994,-0.27587 h 0.23707 v 1.58891 z" />
      </g>
      <g
         style="fill:#cfcfcf;fill-opacity:1"
         id="g193"
         transform="translate(600)">
        <path
           id="path939"
           style="fill:#cfcfcf;fill-opacity:1;fill-rule:nonzero;stroke:none;stroke-width:0.352778"
           d="m -578.62602,111.78187 c 0,0.0395 -0.0325,0.072 -0.072,0.072 h -0.2159 c -0.0402,0 -0.0723,-0.0325 -0.0723,-0.072 v -1.44498 c 0,-0.0395 0.0321,-0.0716 0.0723,-0.0716 h 0.2159 c 0.0395,0 0.072,0.0321 0.072,0.0716 z" />
        <path
           id="path943"
           style="fill:#cfcfcf;fill-opacity:1;fill-rule:nonzero;stroke:none;stroke-width:0.352778"
           d="m -579.28437,111.78187 c 0,0.0395 -0.0325,0.072 -0.0723,0.072 h -0.2159 c -0.0402,0 -0.072,-0.0325 -0.072,-0.072 v -1.05763 c 0,-0.0395 0.0317,-0.0716 0.072,-0.0716 h 0.2159 c 0.0399,0 0.0723,0.0321 0.0723,0.0716 z" />
        <path
           id="path947"
           style="fill:#cfcfcf;fill-opacity:1;fill-rule:nonzero;stroke:none;stroke-width:0.352778"
           d="m -579.94308,111.78187 c 0,0.0395 -0.0325,0.072 -0.0723,0.072 h -0.2159 c -0.0402,0 -0.072,-0.0325 -0.072,-0.072 v -0.73448 c 0,-0.0395 0.0317,-0.072 0.072,-0.072 h 0.2159 c 0.0399,0 0.0723,0.0325 0.0723,0.072 z" />
        <path
           id="path951"
           style="fill:#cfcfcf;fill-opacity:1;fill-rule:nonzero;stroke:none;stroke-width:0.352778"
           d="m -580.60179,111.78187 c 0,0.0395 -0.0325,0.072 -0.0723,0.072 h -0.2159 c -0.0402,0 -0.072,-0.0325 -0.072,-0.072 v -0.47625 c 0,-0.0395 0.0317,-0.0716 0.072,-0.0716 h 0.2159 c 0.0399,0 0.0723,0.0321 0.0723,0.0716 z" />
      </g>
      <g
         style="fill:#cfcfcf;fill-opacity:1"
         id="g201"
         transform="translate(600)">
        <path
           id="path955"
           style="fill:#cfcfcf;fill-opacity:1;fill-rule:evenodd;stroke:none;stroke-width:0.352778"
           d="m -577.53774,110.98967 c -0.0977,-0.0953 -0.19262,-0.18697 -0.28716,-0.27905 0.58843,-0.59725 1.61995,-0.61983 2.23873,7.1e-4 -0.0931,0.0938 -0.18627,0.18732 -0.28293,0.28398 -0.23425,-0.21907 -0.51188,-0.3369 -0.83467,-0.3376 -0.3235,-7.1e-4 -0.60184,0.115 -0.83397,0.33196" />
        <path
           id="path959"
           style="fill:#cfcfcf;fill-opacity:1;fill-rule:evenodd;stroke:none;stroke-width:0.352778"
           d="m -577.12742,111.40482 c -0.0956,-0.0931 -0.18979,-0.18521 -0.28469,-0.27728 0.36759,-0.37677 1.0287,-0.38735 1.40758,-0.004 -0.0928,0.0942 -0.18556,0.18838 -0.27834,0.28292 -0.28258,-0.21907 -0.56374,-0.21942 -0.84455,-0.002" />
        <path
           id="path963"
           style="fill:#cfcfcf;fill-opacity:1;fill-rule:evenodd;stroke:none;stroke-width:0.352778"
           d="m -576.42977,111.54692 c -0.0938,0.0949 -0.18556,0.18768 -0.27622,0.2794 -0.0938,-0.0928 -0.18627,-0.1845 -0.2787,-0.27658 0.12065,-0.13264 0.39582,-0.15593 0.55492,-0.003" />
      </g>
      <g
         style="fill:#cfcfcf;fill-opacity:1"
         id="g224"
         transform="translate(500)">
        <path
           d="m -471.78474,111.53693 c 0,0.11818 -0.0963,0.21414 -0.21519,0.21414 h -2.45922 c -0.11853,0 -0.21484,-0.096 -0.21484,-0.21414 v -0.95532 c 0,-0.11783 0.0963,-0.21379 0.21484,-0.21379 h 2.45922 c 0.11888,0 0.21519,0.096 0.21519,0.21379 z m -0.21519,-1.31163 h -2.45922 c -0.19755,0 -0.35842,0.15981 -0.35842,0.35631 v 0.95532 c 0,0.1965 0.16087,0.35666 0.35842,0.35666 h 2.45922 c 0.1972,0 0.35806,-0.16016 0.35806,-0.35666 v -0.95532 c 0,-0.1965 -0.16086,-0.35631 -0.35806,-0.35631"
           style="opacity:0.399994;fill:#cfcfcf;fill-opacity:1;fill-rule:nonzero;stroke:none;stroke-width:0.352778"
           id="path973" />
        <path
           id="path983"
           style="fill:#cfcfcf;fill-opacity:1;fill-rule:nonzero;stroke:none;stroke-width:0.352778"
           d="m -471.92772,111.53693 c 0,0.0395 -0.0325,0.072 -0.0723,0.072 h -2.45921 c -0.0399,0 -0.072,-0.0325 -0.072,-0.072 v -0.95532 c 0,-0.0395 0.0321,-0.0716 0.072,-0.0716 h 2.45921 c 0.0399,0 0.0723,0.0321 0.0723,0.0716 z" />
        <path
           id="path987"
           style="fill:#cfcfcf;fill-opacity:1;fill-rule:nonzero;stroke:none;stroke-width:0.352778"
           d="m -471.299,111.05927 c 0,0.10619 -0.0864,0.19226 -0.19297,0.19226 v -0.38417 c 0.10654,0 0.19297,0.0857 0.19297,0.19191" />
      </g>
      <path
         id="path182"
         d="m -6.3165,223.15872 a 0.35277777,0.35277777 0 0 1 -0.35278,-0.35278 0.35277777,0.35277777 0 0 1 0.35278,-0.35278 h 19.7342 a 0.35277777,0.35277777 0 0 1 0.35277,0.35278 0.35277777,0.35277777 0 0 1 -0.35277,0.35278 z"
         style="color:#000000;font-style:normal;font-variant:normal;font-weight:normal;font-stretch:normal;font-size:medium;line-height:normal;font-family:sans-serif;font-variant-ligatures:normal;font-variant-position:normal;font-variant-caps:normal;font-variant-numeric:normal;font-variant-alternates:normal;font-variant-east-asian:normal;font-feature-settings:normal;font-variation-settings:normal;text-indent:0;text-align:start;text-decoration:none;text-decoration-line:none;text-decoration-style:solid;text-decoration-color:#000000;letter-spacing:normal;word-spacing:normal;text-transform:none;writing-mode:lr-tb;direction:ltr;text-orientation:mixed;dominant-baseline:auto;baseline-shift:baseline;text-anchor:start;white-space:normal;shape-padding:0;shape-margin:0;inline-size:0;clip-rule:nonzero;display:inline;overflow:visible;visibility:visible;isolation:auto;mix-blend-mode:normal;color-interpolation:sRGB;color-interpolation-filters:linearRGB;solid-color:#000000;solid-opacity:1;vector-effect:none;fill:#cfcfcf;fill-opacity:1;fill-rule:nonzero;stroke:none;stroke-width:0.705556;stroke-linecap:round;stroke-linejoin:round;stroke-miterlimit:10;stroke-dasharray:none;stroke-dashoffset:0;stroke-opacity:1;color-rendering:auto;image-rendering:auto;shape-rendering:auto;text-rendering:auto;enable-background:accumulate;stop-color:#000000" />
    </g>
    <g
       id="g340"
       transform="translate(900)">
      <path
         id="path326"
         style="fill:#a6a6a6;fill-opacity:1;fill-rule:nonzero;stroke:none;stroke-width:0.352778"
         d="m -665.54982,115.68345 c 0,-4.04848 -0.41734,-6.56625 -2.99085,-9.07838 -2.48532,-2.42641 -6.07131,-2.50896 -7.28627,-2.50896 h -41.24466 c -1.21462,0 -4.80095,0.0825 -7.28663,2.50896 -2.57351,2.51213 -2.99049,5.0299 -2.99049,9.07838 v 101.25216 c 0,4.04848 0.41698,6.5659 2.99049,9.07873 2.48568,2.42606 6.07201,2.50896 7.28663,2.50861 h 41.24466 c 1.21496,3.5e-4 4.80095,-0.0825 7.28627,-2.50861 2.57351,-2.51283 2.99085,-5.03025 2.99085,-9.07873 z" />
      <path
         id="path328"
         style="fill:#000000;fill-opacity:1;fill-rule:nonzero;stroke:none;stroke-width:0.352778"
         d="m -717.07174,228.01869 c -3.72851,0 -5.82683,-1.28623 -6.93173,-2.36467 -2.41406,-2.35691 -2.8388,-4.68912 -2.8388,-8.71855 V 115.68331 c 0,-4.02943 0.42474,-6.36129 2.8388,-8.7182 1.1049,-1.07879 3.20428,-2.36466 6.92926,-2.36466 h 41.24748 c 3.72745,0 5.82648,1.28587 6.93138,2.36466 2.41441,2.35656 2.83916,4.68877 2.83916,8.7182 v 101.25216 c 0,4.02943 -0.42475,6.36164 -2.83916,8.71855 -1.1049,1.07844 -3.20322,2.36467 -6.92256,2.36467 z" />
      <path
         id="path330"
         style="fill:none;stroke:#303030;stroke-width:0.264583;stroke-linecap:butt;stroke-linejoin:miter;stroke-miterlimit:10;stroke-dasharray:none;stroke-opacity:1"
         d="m -717.07174,228.01869 c -3.72851,0 -5.82683,-1.28623 -6.93173,-2.36467 -2.41406,-2.35691 -2.8388,-4.68912 -2.8388,-8.71855 V 115.68331 c 0,-4.02943 0.42474,-6.36129 2.8388,-8.7182 1.1049,-1.07879 3.20428,-2.36466 6.92926,-2.36466 h 41.24748 c 3.72745,0 5.82648,1.28587 6.93138,2.36466 2.41441,2.35656 2.83916,4.68877 2.83916,8.7182 v 101.25216 c 0,4.02943 -0.42475,6.36164 -2.83916,8.71855 -1.1049,1.07844 -3.20322,2.36467 -6.92256,2.36467 z" />
      <path
         id="path332"
         style="fill:#a6a6a6;fill-opacity:1;fill-rule:nonzero;stroke:none;stroke-width:0.352778"
         d="m -727.42252,120.87108 c -0.024,0 -0.0455,0.008 -0.0677,0.0138 v -0.005 c -0.007,0.002 -0.0138,0.006 -0.0212,0.009 -0.0159,0.005 -0.0303,0.0113 -0.0445,0.0187 -0.0169,0.009 -0.0321,0.0194 -0.0466,0.0314 -0.0116,0.01 -0.0233,0.0183 -0.0332,0.0296 -0.0148,0.0159 -0.0258,0.0346 -0.0363,0.0536 -0.006,0.0106 -0.0134,0.0201 -0.018,0.0318 -0.0127,0.0321 -0.0208,0.0667 -0.0208,0.10372 v 4.19417 c 0,0.037 0.008,0.0716 0.0208,0.10407 0.005,0.0113 0.012,0.0208 0.018,0.0318 0.0106,0.019 0.0215,0.0374 0.0363,0.0536 0.01,0.0113 0.0215,0.0201 0.0332,0.0296 0.0145,0.0116 0.0296,0.0222 0.0466,0.0314 0.0145,0.007 0.0286,0.0134 0.0445,0.0187 0.007,0.002 0.0138,0.007 0.0212,0.009 v -0.005 c 0.0222,0.006 0.0437,0.0137 0.0677,0.0137 h 0.15275 v -4.76814 z" />
      <path
         id="path334"
         style="fill:#a6a6a6;fill-opacity:1;fill-rule:nonzero;stroke:none;stroke-width:0.352778"
         d="m -727.42252,129.77025 c -0.024,0 -0.0455,0.008 -0.0677,0.0138 v -0.005 c -0.007,0.002 -0.0138,0.006 -0.0212,0.009 -0.0159,0.005 -0.0303,0.0113 -0.0445,0.0187 -0.0169,0.009 -0.0321,0.0194 -0.0466,0.031 -0.0116,0.01 -0.0233,0.0187 -0.0332,0.0296 -0.0148,0.0162 -0.0258,0.0346 -0.0363,0.0536 -0.006,0.0109 -0.0134,0.0205 -0.018,0.0321 -0.0127,0.0321 -0.0208,0.0667 -0.0208,0.10372 v 8.44832 c 0,0.037 0.008,0.0716 0.0208,0.10407 0.005,0.0116 0.012,0.0212 0.018,0.0317 0.0106,0.0194 0.0215,0.0374 0.0363,0.0536 0.01,0.0113 0.0215,0.0201 0.0332,0.0296 0.0148,0.012 0.0296,0.0226 0.0466,0.0314 0.0141,0.008 0.0289,0.0138 0.0448,0.019 0.007,0.002 0.0134,0.007 0.0208,0.009 v -0.005 c 0.0222,0.005 0.0437,0.0134 0.0677,0.0134 h 0.15275 v -9.02229 z" />
      <path
         id="path336"
         style="fill:#a6a6a6;fill-opacity:1;fill-rule:nonzero;stroke:none;stroke-width:0.352778"
         d="m -727.31143,141.17937 c -0.024,0 -0.0452,0.008 -0.0674,0.0138 v -0.005 c -0.008,0.002 -0.0141,0.006 -0.0215,0.009 -0.0155,0.005 -0.03,0.0109 -0.0441,0.0187 -0.0169,0.009 -0.0321,0.0194 -0.0469,0.0314 -0.0116,0.01 -0.0229,0.0183 -0.0328,0.0293 -0.0148,0.0162 -0.0258,0.0349 -0.0367,0.0543 -0.006,0.0106 -0.0131,0.0198 -0.0173,0.031 -0.0131,0.0325 -0.0212,0.067 -0.0212,0.10407 v 8.44832 c 0,0.037 0.008,0.0716 0.0212,0.10442 0.004,0.0113 0.0113,0.0205 0.0173,0.031 0.0109,0.0194 0.0219,0.0377 0.0367,0.0543 0.01,0.0109 0.0215,0.0198 0.0328,0.0293 0.0148,0.012 0.0296,0.0226 0.0469,0.0314 0.0141,0.008 0.0286,0.0138 0.0444,0.019 0.007,0.002 0.0134,0.007 0.0212,0.009 v -0.005 c 0.0222,0.005 0.0434,0.0134 0.0674,0.0134 h 0.0882 v -9.02229 z" />
      <path
         id="path338"
         style="fill:#a6a6a6;fill-opacity:1;fill-rule:nonzero;stroke:none;stroke-width:0.352778"
         d="m -665.17982,146.8345 c 0.0127,-0.0388 0.0215,-0.0797 0.0215,-0.12241 V 133.3023 c 0,-0.043 -0.009,-0.0836 -0.0215,-0.12242 -0.002,-0.006 -0.003,-0.0116 -0.005,-0.0176 -0.0145,-0.037 -0.0335,-0.0709 -0.0575,-0.1016 -0.003,-0.004 -0.006,-0.008 -0.01,-0.012 -0.054,-0.0649 -0.1277,-0.11254 -0.21308,-0.13335 -0.0303,-0.007 -0.061,-0.012 -0.0938,-0.012 h -0.12241 v 14.20777 h 0.12241 c 0.12383,0 0.23354,-0.0571 0.30692,-0.14535 0.004,-0.004 0.006,-0.008 0.01,-0.012 0.024,-0.0307 0.043,-0.0646 0.0575,-0.1016 0.002,-0.006 0.004,-0.0116 0.005,-0.0176" />
    </g>
    <path
       id="path342"
       style="fill:#ffffff;fill-opacity:1;stroke:none;stroke-width:0.352778"
       d="m 224.1731,107.81901 h -4.70465 c -0.23883,0.0303 -0.58632,0.17392 -0.62089,0.74577 v 0 c -0.0473,0.78564 -0.14428,1.82139 -0.92604,2.61797 v 0 c -0.6029,0.61418 -1.38289,0.90628 -2.19392,0.90628 v 0 H 191.496 c -0.81104,0 -1.59103,-0.2921 -2.19393,-0.90628 v 0 c -0.7814,-0.79658 -0.87842,-1.83233 -0.92569,-2.61797 v 0 c -0.0346,-0.57185 -0.38206,-0.71543 -0.62124,-0.74577 v 0 h -4.82847 c -2.6349,0 -3.99238,0.78564 -4.6676,1.44427 v 0 c -1.58715,1.5494 -1.86972,3.0293 -1.86972,6.4202 v 0 101.25216 c 0,3.3909 0.28257,4.87081 1.87007,6.42021 v 0 c 0.67487,0.65898 2.03271,1.44462 4.66866,1.44427 v 0 h 41.24678 c 2.63525,0 3.99239,-0.78529 4.66725,-1.44427 v 0 c 1.58715,-1.5494 1.86937,-3.02931 1.86937,-6.42021 v 0 -101.25216 c 0,-3.3909 -0.28222,-4.8708 -1.86937,-6.4202 v 0 c -0.67486,-0.65863 -2.03271,-1.44427 -4.6676,-1.44427 v 0 c -7.1e-4,0 -0.001,0 -0.001,0" />
    <g
       id="g350"
       transform="translate(200)">
      <path
         id="path344"
         style="fill:#2d2d2d;fill-opacity:1;fill-rule:nonzero;stroke:none;stroke-width:0.352778"
         d="m 11.22643,108.99824 c 0,0.52317 -0.4258,0.94756 -0.95144,0.94756 -0.52564,0 -0.95144,-0.42439 -0.95144,-0.94756 0,-0.52317 0.4258,-0.94756 0.95144,-0.94756 0.52564,0 0.95144,0.42439 0.95144,0.94756" />
      <path
         id="path346"
         style="fill:#000000;fill-opacity:1;fill-rule:nonzero;stroke:none;stroke-width:0.352778"
         d="m 10.60357,108.99824 c 0,0.18062 -0.14711,0.32738 -0.32879,0.32738 -0.18133,0 -0.32843,-0.14676 -0.32843,-0.32738 0,-0.18097 0.1471,-0.32738 0.32843,-0.32738 0.18168,0 0.32879,0.14641 0.32879,0.32738" />
      <path
         id="path348"
         style="fill:#2d2d2d;fill-opacity:1;fill-rule:nonzero;stroke:none;stroke-width:0.352778"
         d="m 7.36002,108.99824 c 0,0.2794 -0.22789,0.50588 -0.50765,0.50588 h -6.6548 c -0.28046,0 -0.508,-0.22648 -0.508,-0.50588 0,-0.2794 0.22754,-0.50588 0.508,-0.50588 h 6.6548 c 0.27976,0 0.50765,0.22648 0.50765,0.50588" />
    </g>
    <g
       id="g390"
       transform="translate(200)"
       style="fill:#000000;fill-opacity:1">
      <g
         transform="translate(400)"
         id="g360"
         style="fill:#000000;fill-opacity:1">
        <path
           d="m -418.05222,110.44018 c -0.17286,0 -0.31538,0.12347 -0.31538,0.33161 0,0.21802 0.14816,0.32491 0.32032,0.32491 0.16686,0 0.31997,-0.10583 0.31997,-0.31997 0,-0.21414 -0.14005,-0.33655 -0.32491,-0.33655 m -0.2734,1.08726 c 0.0212,0.0713 0.11006,0.1457 0.25858,0.1457 0.28258,0 0.38771,-0.2727 0.37853,-0.60678 h -0.0141 c -0.0476,0.12453 -0.17639,0.2353 -0.39052,0.2353 -0.28046,0 -0.51047,-0.19226 -0.51047,-0.52987 0,-0.33867 0.24412,-0.54116 0.56444,-0.54116 0.28963,0 0.58103,0.17145 0.58103,0.79622 0,0.5648 -0.19756,0.85549 -0.61384,0.85549 -0.30585,0 -0.47095,-0.17428 -0.49106,-0.3549 z"
           style="fill:#000000;fill-opacity:1;fill-rule:nonzero;stroke:none;stroke-width:0.352778"
           id="path352" />
        <path
           d="m -416.93169,111.51591 c 0.10266,0 0.18133,0.0734 0.18133,0.18168 0,0.10478 -0.0787,0.17674 -0.18133,0.17674 -0.0956,0 -0.17533,-0.072 -0.17533,-0.17674 0,-0.1083 0.0783,-0.18168 0.17533,-0.18168 m 0,-0.77999 c 0.10266,0 0.18133,0.0744 0.18133,0.18168 0,0.10477 -0.0787,0.17815 -0.18133,0.17815 -0.0956,0 -0.17533,-0.0734 -0.17533,-0.17815 0,-0.1083 0.0783,-0.18168 0.17533,-0.18168"
           style="fill:#000000;fill-opacity:1;fill-rule:nonzero;stroke:none;stroke-width:0.352778"
           id="path354" />
        <path
           d="m -415.66321,111.32608 v -0.85443 h -0.0127 c -0.17886,0.26635 -0.36936,0.56233 -0.53093,0.84385 v 0.0106 z m 0.22789,-1.06151 v 1.06151 h 0.20462 v 0.21519 h -0.20462 v 0.31221 h -0.22789 v -0.31221 h -0.77505 v -0.21872 c 0.19649,-0.35383 0.42898,-0.7052 0.65123,-1.05798 z"
           style="fill:#000000;fill-opacity:1;fill-rule:nonzero;stroke:none;stroke-width:0.352778"
           id="path356" />
        <path
           d="m -414.57319,111.85334 v -1.32821 h -0.012 l -0.36795,0.26212 v -0.24695 l 0.37994,-0.27587 h 0.23707 v 1.58891 z"
           style="fill:#000000;fill-opacity:1;fill-rule:nonzero;stroke:none;stroke-width:0.352778"
           id="path358" />
      </g>
      <g
         transform="translate(600)"
         id="g370"
         style="fill:#000000;fill-opacity:1">
        <path
           d="m -578.62602,111.78187 c 0,0.0395 -0.0325,0.072 -0.072,0.072 h -0.2159 c -0.0402,0 -0.0723,-0.0325 -0.0723,-0.072 v -1.44498 c 0,-0.0395 0.0321,-0.0716 0.0723,-0.0716 h 0.2159 c 0.0395,0 0.072,0.0321 0.072,0.0716 z"
           style="fill:#000000;fill-opacity:1;fill-rule:nonzero;stroke:none;stroke-width:0.352778"
           id="path362" />
        <path
           d="m -579.28437,111.78187 c 0,0.0395 -0.0325,0.072 -0.0723,0.072 h -0.2159 c -0.0402,0 -0.072,-0.0325 -0.072,-0.072 v -1.05763 c 0,-0.0395 0.0317,-0.0716 0.072,-0.0716 h 0.2159 c 0.0399,0 0.0723,0.0321 0.0723,0.0716 z"
           style="fill:#000000;fill-opacity:1;fill-rule:nonzero;stroke:none;stroke-width:0.352778"
           id="path364" />
        <path
           d="m -579.94308,111.78187 c 0,0.0395 -0.0325,0.072 -0.0723,0.072 h -0.2159 c -0.0402,0 -0.072,-0.0325 -0.072,-0.072 v -0.73448 c 0,-0.0395 0.0317,-0.072 0.072,-0.072 h 0.2159 c 0.0399,0 0.0723,0.0325 0.0723,0.072 z"
           style="fill:#000000;fill-opacity:1;fill-rule:nonzero;stroke:none;stroke-width:0.352778"
           id="path366" />
        <path
           d="m -580.60179,111.78187 c 0,0.0395 -0.0325,0.072 -0.0723,0.072 h -0.2159 c -0.0402,0 -0.072,-0.0325 -0.072,-0.072 v -0.47625 c 0,-0.0395 0.0317,-0.0716 0.072,-0.0716 h 0.2159 c 0.0399,0 0.0723,0.0321 0.0723,0.0716 z"
           style="fill:#000000;fill-opacity:1;fill-rule:nonzero;stroke:none;stroke-width:0.352778"
           id="path368" />
      </g>
      <g
         transform="translate(600)"
         id="g378"
         style="fill:#000000;fill-opacity:1">
        <path
           d="m -577.53774,110.98967 c -0.0977,-0.0953 -0.19262,-0.18697 -0.28716,-0.27905 0.58843,-0.59725 1.61995,-0.61983 2.23873,7.1e-4 -0.0931,0.0938 -0.18627,0.18732 -0.28293,0.28398 -0.23425,-0.21907 -0.51188,-0.3369 -0.83467,-0.3376 -0.3235,-7.1e-4 -0.60184,0.115 -0.83397,0.33196"
           style="fill:#000000;fill-opacity:1;fill-rule:evenodd;stroke:none;stroke-width:0.352778"
           id="path372" />
        <path
           d="m -577.12742,111.40482 c -0.0956,-0.0931 -0.18979,-0.18521 -0.28469,-0.27728 0.36759,-0.37677 1.0287,-0.38735 1.40758,-0.004 -0.0928,0.0942 -0.18556,0.18838 -0.27834,0.28292 -0.28258,-0.21907 -0.56374,-0.21942 -0.84455,-0.002"
           style="fill:#000000;fill-opacity:1;fill-rule:evenodd;stroke:none;stroke-width:0.352778"
           id="path374" />
        <path
           d="m -576.42977,111.54692 c -0.0938,0.0949 -0.18556,0.18768 -0.27622,0.2794 -0.0938,-0.0928 -0.18627,-0.1845 -0.2787,-0.27658 0.12065,-0.13264 0.39582,-0.15593 0.55492,-0.003"
           style="fill:#000000;fill-opacity:1;fill-rule:evenodd;stroke:none;stroke-width:0.352778"
           id="path376" />
      </g>
      <g
         transform="translate(500)"
         id="g386"
         style="fill:#000000;fill-opacity:1">
        <path
           id="path380"
           style="opacity:0.399994;fill:#000000;fill-opacity:1;fill-rule:nonzero;stroke:none;stroke-width:0.352778"
           d="m -471.78474,111.53693 c 0,0.11818 -0.0963,0.21414 -0.21519,0.21414 h -2.45922 c -0.11853,0 -0.21484,-0.096 -0.21484,-0.21414 v -0.95532 c 0,-0.11783 0.0963,-0.21379 0.21484,-0.21379 h 2.45922 c 0.11888,0 0.21519,0.096 0.21519,0.21379 z m -0.21519,-1.31163 h -2.45922 c -0.19755,0 -0.35842,0.15981 -0.35842,0.35631 v 0.95532 c 0,0.1965 0.16087,0.35666 0.35842,0.35666 h 2.45922 c 0.1972,0 0.35806,-0.16016 0.35806,-0.35666 v -0.95532 c 0,-0.1965 -0.16086,-0.35631 -0.35806,-0.35631" />
        <path
           d="m -471.92772,111.53693 c 0,0.0395 -0.0325,0.072 -0.0723,0.072 h -2.45921 c -0.0399,0 -0.072,-0.0325 -0.072,-0.072 v -0.95532 c 0,-0.0395 0.0321,-0.0716 0.072,-0.0716 h 2.45921 c 0.0399,0 0.0723,0.0321 0.0723,0.0716 z"
           style="fill:#000000;fill-opacity:1;fill-rule:nonzero;stroke:none;stroke-width:0.352778"
           id="path382" />
        <path
           d="m -471.299,111.05927 c 0,0.10619 -0.0864,0.19226 -0.19297,0.19226 v -0.38417 c 0.10654,0 0.19297,0.0857 0.19297,0.19191"
           style="fill:#000000;fill-opacity:1;fill-rule:nonzero;stroke:none;stroke-width:0.352778"
           id="path384" />
      </g>
      <path
         style="color:#000000;font-style:normal;font-variant:normal;font-weight:normal;font-stretch:normal;font-size:medium;line-height:normal;font-family:sans-serif;font-variant-ligatures:normal;font-variant-position:normal;font-variant-caps:normal;font-variant-numeric:normal;font-variant-alternates:normal;font-variant-east-asian:normal;font-feature-settings:normal;font-variation-settings:normal;text-indent:0;text-align:start;text-decoration:none;text-decoration-line:none;text-decoration-style:solid;text-decoration-color:#000000;letter-spacing:normal;word-spacing:normal;text-transform:none;writing-mode:lr-tb;direction:ltr;text-orientation:mixed;dominant-baseline:auto;baseline-shift:baseline;text-anchor:start;white-space:normal;shape-padding:0;shape-margin:0;inline-size:0;clip-rule:nonzero;display:inline;overflow:visible;visibility:visible;isolation:auto;mix-blend-mode:normal;color-interpolation:sRGB;color-interpolation-filters:linearRGB;solid-color:#000000;solid-opacity:1;vector-effect:none;fill:#000000;fill-opacity:1;fill-rule:nonzero;stroke:none;stroke-width:0.705556;stroke-linecap:round;stroke-linejoin:round;stroke-miterlimit:10;stroke-dasharray:none;stroke-dashoffset:0;stroke-opacity:1;color-rendering:auto;image-rendering:auto;shape-rendering:auto;text-rendering:auto;enable-background:accumulate;stop-color:#000000"
         d="m -6.3165,223.15872 a 0.35277777,0.35277777 0 0 1 -0.35278,-0.35278 0.35277777,0.35277777 0 0 1 0.35278,-0.35278 h 19.7342 a 0.35277777,0.35277777 0 0 1 0.35277,0.35278 0.35277777,0.35277777 0 0 1 -0.35277,0.35278 z"
         id="path388" />
    </g>
    <g
       id="g1229"
       transform="translate(700)">
      <path
         id="path1215"
         style="fill:#a6a6a6;fill-opacity:1;fill-rule:nonzero;stroke:none;stroke-width:0.352778"
         d="m -665.54982,115.68345 c 0,-4.04848 -0.41734,-6.56625 -2.99085,-9.07838 -2.48532,-2.42641 -6.07131,-2.50896 -7.28627,-2.50896 h -41.24466 c -1.21462,0 -4.80095,0.0825 -7.28663,2.50896 -2.57351,2.51213 -2.99049,5.0299 -2.99049,9.07838 v 101.25216 c 0,4.04848 0.41698,6.5659 2.99049,9.07873 2.48568,2.42606 6.07201,2.50896 7.28663,2.50861 h 41.24466 c 1.21496,3.5e-4 4.80095,-0.0825 7.28627,-2.50861 2.57351,-2.51283 2.99085,-5.03025 2.99085,-9.07873 z" />
      <path
         id="path1217"
         style="fill:#000000;fill-opacity:1;fill-rule:nonzero;stroke:none;stroke-width:0.352778"
         d="m -717.07174,228.01869 c -3.72851,0 -5.82683,-1.28623 -6.93173,-2.36467 -2.41406,-2.35691 -2.8388,-4.68912 -2.8388,-8.71855 V 115.68331 c 0,-4.02943 0.42474,-6.36129 2.8388,-8.7182 1.1049,-1.07879 3.20428,-2.36466 6.92926,-2.36466 h 41.24748 c 3.72745,0 5.82648,1.28587 6.93138,2.36466 2.41441,2.35656 2.83916,4.68877 2.83916,8.7182 v 101.25216 c 0,4.02943 -0.42475,6.36164 -2.83916,8.71855 -1.1049,1.07844 -3.20322,2.36467 -6.92256,2.36467 z" />
      <path
         id="path1219"
         style="fill:none;stroke:#303030;stroke-width:0.264583;stroke-linecap:butt;stroke-linejoin:miter;stroke-miterlimit:10;stroke-dasharray:none;stroke-opacity:1"
         d="m -717.07174,228.01869 c -3.72851,0 -5.82683,-1.28623 -6.93173,-2.36467 -2.41406,-2.35691 -2.8388,-4.68912 -2.8388,-8.71855 V 115.68331 c 0,-4.02943 0.42474,-6.36129 2.8388,-8.7182 1.1049,-1.07879 3.20428,-2.36466 6.92926,-2.36466 h 41.24748 c 3.72745,0 5.82648,1.28587 6.93138,2.36466 2.41441,2.35656 2.83916,4.68877 2.83916,8.7182 v 101.25216 c 0,4.02943 -0.42475,6.36164 -2.83916,8.71855 -1.1049,1.07844 -3.20322,2.36467 -6.92256,2.36467 z" />
      <path
         id="path1221"
         style="fill:#a6a6a6;fill-opacity:1;fill-rule:nonzero;stroke:none;stroke-width:0.352778"
         d="m -727.42252,120.87108 c -0.024,0 -0.0455,0.008 -0.0677,0.0138 v -0.005 c -0.007,0.002 -0.0138,0.006 -0.0212,0.009 -0.0159,0.005 -0.0303,0.0113 -0.0445,0.0187 -0.0169,0.009 -0.0321,0.0194 -0.0466,0.0314 -0.0116,0.01 -0.0233,0.0183 -0.0332,0.0296 -0.0148,0.0159 -0.0258,0.0346 -0.0363,0.0536 -0.006,0.0106 -0.0134,0.0201 -0.018,0.0318 -0.0127,0.0321 -0.0208,0.0667 -0.0208,0.10372 v 4.19417 c 0,0.037 0.008,0.0716 0.0208,0.10407 0.005,0.0113 0.012,0.0208 0.018,0.0318 0.0106,0.019 0.0215,0.0374 0.0363,0.0536 0.01,0.0113 0.0215,0.0201 0.0332,0.0296 0.0145,0.0116 0.0296,0.0222 0.0466,0.0314 0.0145,0.007 0.0286,0.0134 0.0445,0.0187 0.007,0.002 0.0138,0.007 0.0212,0.009 v -0.005 c 0.0222,0.006 0.0437,0.0137 0.0677,0.0137 h 0.15275 v -4.76814 z" />
      <path
         id="path1223"
         style="fill:#a6a6a6;fill-opacity:1;fill-rule:nonzero;stroke:none;stroke-width:0.352778"
         d="m -727.42252,129.77025 c -0.024,0 -0.0455,0.008 -0.0677,0.0138 v -0.005 c -0.007,0.002 -0.0138,0.006 -0.0212,0.009 -0.0159,0.005 -0.0303,0.0113 -0.0445,0.0187 -0.0169,0.009 -0.0321,0.0194 -0.0466,0.031 -0.0116,0.01 -0.0233,0.0187 -0.0332,0.0296 -0.0148,0.0162 -0.0258,0.0346 -0.0363,0.0536 -0.006,0.0109 -0.0134,0.0205 -0.018,0.0321 -0.0127,0.0321 -0.0208,0.0667 -0.0208,0.10372 v 8.44832 c 0,0.037 0.008,0.0716 0.0208,0.10407 0.005,0.0116 0.012,0.0212 0.018,0.0317 0.0106,0.0194 0.0215,0.0374 0.0363,0.0536 0.01,0.0113 0.0215,0.0201 0.0332,0.0296 0.0148,0.012 0.0296,0.0226 0.0466,0.0314 0.0141,0.008 0.0289,0.0138 0.0448,0.019 0.007,0.002 0.0134,0.007 0.0208,0.009 v -0.005 c 0.0222,0.005 0.0437,0.0134 0.0677,0.0134 h 0.15275 v -9.02229 z" />
      <path
         id="path1225"
         style="fill:#a6a6a6;fill-opacity:1;fill-rule:nonzero;stroke:none;stroke-width:0.352778"
         d="m -727.31143,141.17937 c -0.024,0 -0.0452,0.008 -0.0674,0.0138 v -0.005 c -0.008,0.002 -0.0141,0.006 -0.0215,0.009 -0.0155,0.005 -0.03,0.0109 -0.0441,0.0187 -0.0169,0.009 -0.0321,0.0194 -0.0469,0.0314 -0.0116,0.01 -0.0229,0.0183 -0.0328,0.0293 -0.0148,0.0162 -0.0258,0.0349 -0.0367,0.0543 -0.006,0.0106 -0.0131,0.0198 -0.0173,0.031 -0.0131,0.0325 -0.0212,0.067 -0.0212,0.10407 v 8.44832 c 0,0.037 0.008,0.0716 0.0212,0.10442 0.004,0.0113 0.0113,0.0205 0.0173,0.031 0.0109,0.0194 0.0219,0.0377 0.0367,0.0543 0.01,0.0109 0.0215,0.0198 0.0328,0.0293 0.0148,0.012 0.0296,0.0226 0.0469,0.0314 0.0141,0.008 0.0286,0.0138 0.0444,0.019 0.007,0.002 0.0134,0.007 0.0212,0.009 v -0.005 c 0.0222,0.005 0.0434,0.0134 0.0674,0.0134 h 0.0882 v -9.02229 z" />
      <path
         id="path1227"
         style="fill:#a6a6a6;fill-opacity:1;fill-rule:nonzero;stroke:none;stroke-width:0.352778"
         d="m -665.17982,146.8345 c 0.0127,-0.0388 0.0215,-0.0797 0.0215,-0.12241 V 133.3023 c 0,-0.043 -0.009,-0.0836 -0.0215,-0.12242 -0.002,-0.006 -0.003,-0.0116 -0.005,-0.0176 -0.0145,-0.037 -0.0335,-0.0709 -0.0575,-0.1016 -0.003,-0.004 -0.006,-0.008 -0.01,-0.012 -0.054,-0.0649 -0.1277,-0.11254 -0.21308,-0.13335 -0.0303,-0.007 -0.061,-0.012 -0.0938,-0.012 h -0.12241 v 14.20777 h 0.12241 c 0.12383,0 0.23354,-0.0571 0.30692,-0.14535 0.004,-0.004 0.006,-0.008 0.01,-0.012 0.024,-0.0307 0.043,-0.0646 0.0575,-0.1016 0.002,-0.006 0.004,-0.0116 0.005,-0.0176" />
    </g>
    <path
       id="path1231"
       style="fill:#1a1a1a;fill-opacity:1;stroke:none;stroke-width:0.352778"
       d="m 24.1731,107.81901 h -4.70465 c -0.23883,0.0303 -0.58632,0.17392 -0.62089,0.74577 v 0 c -0.0473,0.78564 -0.14428,1.82139 -0.92604,2.61797 v 0 c -0.6029,0.61418 -1.38289,0.90628 -2.19392,0.90628 v 0 H -8.504 c -0.81104,0 -1.59103,-0.2921 -2.19393,-0.90628 v 0 c -0.7814,-0.79658 -0.87842,-1.83233 -0.92569,-2.61797 v 0 c -0.0346,-0.57185 -0.38206,-0.71543 -0.62124,-0.74577 v 0 h -4.82847 c -2.6349,0 -3.99238,0.78564 -4.6676,1.44427 v 0 c -1.58715,1.5494 -1.86972,3.0293 -1.86972,6.4202 v 0 101.25216 c 0,3.3909 0.28257,4.87081 1.87007,6.42021 v 0 c 0.67487,0.65898 2.03271,1.44462 4.66866,1.44427 v 0 h 41.24678 c 2.63525,0 3.99239,-0.78529 4.66725,-1.44427 v 0 c 1.58715,-1.5494 1.86937,-3.02931 1.86937,-6.42021 v 0 -101.25216 c 0,-3.3909 -0.28222,-4.8708 -1.86937,-6.4202 v 0 c -0.67486,-0.65863 -2.03271,-1.44427 -4.6676,-1.44427 v 0 c -7.1e-4,0 -0.001,0 -0.001,0" />
    <g
       id="g1239">
      <path
         id="path1233"
         style="fill:#2d2d2d;fill-opacity:1;fill-rule:nonzero;stroke:none;stroke-width:0.352778"
         d="m 11.22643,108.99824 c 0,0.52317 -0.4258,0.94756 -0.95144,0.94756 -0.52564,0 -0.95144,-0.42439 -0.95144,-0.94756 0,-0.52317 0.4258,-0.94756 0.95144,-0.94756 0.52564,0 0.95144,0.42439 0.95144,0.94756" />
      <path
         id="path1235"
         style="fill:#000000;fill-opacity:1;fill-rule:nonzero;stroke:none;stroke-width:0.352778"
         d="m 10.60357,108.99824 c 0,0.18062 -0.14711,0.32738 -0.32879,0.32738 -0.18133,0 -0.32843,-0.14676 -0.32843,-0.32738 0,-0.18097 0.1471,-0.32738 0.32843,-0.32738 0.18168,0 0.32879,0.14641 0.32879,0.32738" />
      <path
         id="path1237"
         style="fill:#2d2d2d;fill-opacity:1;fill-rule:nonzero;stroke:none;stroke-width:0.352778"
         d="m 7.36002,108.99824 c 0,0.2794 -0.22789,0.50588 -0.50765,0.50588 h -6.6548 c -0.28046,0 -0.508,-0.22648 -0.508,-0.50588 0,-0.2794 0.22754,-0.50588 0.508,-0.50588 h 6.6548 c 0.27976,0 0.50765,0.22648 0.50765,0.50588" />
    </g>
    <g
       id="g1279"
       style="fill:#cfcfcf;fill-opacity:1">
      <g
         transform="translate(400)"
         id="g1249"
         style="fill:#cfcfcf;fill-opacity:1">
        <path
           d="m -418.05222,110.44018 c -0.17286,0 -0.31538,0.12347 -0.31538,0.33161 0,0.21802 0.14816,0.32491 0.32032,0.32491 0.16686,0 0.31997,-0.10583 0.31997,-0.31997 0,-0.21414 -0.14005,-0.33655 -0.32491,-0.33655 m -0.2734,1.08726 c 0.0212,0.0713 0.11006,0.1457 0.25858,0.1457 0.28258,0 0.38771,-0.2727 0.37853,-0.60678 h -0.0141 c -0.0476,0.12453 -0.17639,0.2353 -0.39052,0.2353 -0.28046,0 -0.51047,-0.19226 -0.51047,-0.52987 0,-0.33867 0.24412,-0.54116 0.56444,-0.54116 0.28963,0 0.58103,0.17145 0.58103,0.79622 0,0.5648 -0.19756,0.85549 -0.61384,0.85549 -0.30585,0 -0.47095,-0.17428 -0.49106,-0.3549 z"
           style="fill:#cfcfcf;fill-opacity:1;fill-rule:nonzero;stroke:none;stroke-width:0.352778"
           id="path1241" />
        <path
           d="m -416.93169,111.51591 c 0.10266,0 0.18133,0.0734 0.18133,0.18168 0,0.10478 -0.0787,0.17674 -0.18133,0.17674 -0.0956,0 -0.17533,-0.072 -0.17533,-0.17674 0,-0.1083 0.0783,-0.18168 0.17533,-0.18168 m 0,-0.77999 c 0.10266,0 0.18133,0.0744 0.18133,0.18168 0,0.10477 -0.0787,0.17815 -0.18133,0.17815 -0.0956,0 -0.17533,-0.0734 -0.17533,-0.17815 0,-0.1083 0.0783,-0.18168 0.17533,-0.18168"
           style="fill:#cfcfcf;fill-opacity:1;fill-rule:nonzero;stroke:none;stroke-width:0.352778"
           id="path1243" />
        <path
           d="m -415.66321,111.32608 v -0.85443 h -0.0127 c -0.17886,0.26635 -0.36936,0.56233 -0.53093,0.84385 v 0.0106 z m 0.22789,-1.06151 v 1.06151 h 0.20462 v 0.21519 h -0.20462 v 0.31221 h -0.22789 v -0.31221 h -0.77505 v -0.21872 c 0.19649,-0.35383 0.42898,-0.7052 0.65123,-1.05798 z"
           style="fill:#cfcfcf;fill-opacity:1;fill-rule:nonzero;stroke:none;stroke-width:0.352778"
           id="path1245" />
        <path
           d="m -414.57319,111.85334 v -1.32821 h -0.012 l -0.36795,0.26212 v -0.24695 l 0.37994,-0.27587 h 0.23707 v 1.58891 z"
           style="fill:#cfcfcf;fill-opacity:1;fill-rule:nonzero;stroke:none;stroke-width:0.352778"
           id="path1247" />
      </g>
      <g
         transform="translate(600)"
         id="g1259"
         style="fill:#cfcfcf;fill-opacity:1">
        <path
           d="m -578.62602,111.78187 c 0,0.0395 -0.0325,0.072 -0.072,0.072 h -0.2159 c -0.0402,0 -0.0723,-0.0325 -0.0723,-0.072 v -1.44498 c 0,-0.0395 0.0321,-0.0716 0.0723,-0.0716 h 0.2159 c 0.0395,0 0.072,0.0321 0.072,0.0716 z"
           style="fill:#cfcfcf;fill-opacity:1;fill-rule:nonzero;stroke:none;stroke-width:0.352778"
           id="path1251" />
        <path
           d="m -579.28437,111.78187 c 0,0.0395 -0.0325,0.072 -0.0723,0.072 h -0.2159 c -0.0402,0 -0.072,-0.0325 -0.072,-0.072 v -1.05763 c 0,-0.0395 0.0317,-0.0716 0.072,-0.0716 h 0.2159 c 0.0399,0 0.0723,0.0321 0.0723,0.0716 z"
           style="fill:#cfcfcf;fill-opacity:1;fill-rule:nonzero;stroke:none;stroke-width:0.352778"
           id="path1253" />
        <path
           d="m -579.94308,111.78187 c 0,0.0395 -0.0325,0.072 -0.0723,0.072 h -0.2159 c -0.0402,0 -0.072,-0.0325 -0.072,-0.072 v -0.73448 c 0,-0.0395 0.0317,-0.072 0.072,-0.072 h 0.2159 c 0.0399,0 0.0723,0.0325 0.0723,0.072 z"
           style="fill:#cfcfcf;fill-opacity:1;fill-rule:nonzero;stroke:none;stroke-width:0.352778"
           id="path1255" />
        <path
           d="m -580.60179,111.78187 c 0,0.0395 -0.0325,0.072 -0.0723,0.072 h -0.2159 c -0.0402,0 -0.072,-0.0325 -0.072,-0.072 v -0.47625 c 0,-0.0395 0.0317,-0.0716 0.072,-0.0716 h 0.2159 c 0.0399,0 0.0723,0.0321 0.0723,0.0716 z"
           style="fill:#cfcfcf;fill-opacity:1;fill-rule:nonzero;stroke:none;stroke-width:0.352778"
           id="path1257" />
      </g>
      <g
         transform="translate(600)"
         id="g1267"
         style="fill:#cfcfcf;fill-opacity:1">
        <path
           d="m -577.53774,110.98967 c -0.0977,-0.0953 -0.19262,-0.18697 -0.28716,-0.27905 0.58843,-0.59725 1.61995,-0.61983 2.23873,7.1e-4 -0.0931,0.0938 -0.18627,0.18732 -0.28293,0.28398 -0.23425,-0.21907 -0.51188,-0.3369 -0.83467,-0.3376 -0.3235,-7.1e-4 -0.60184,0.115 -0.83397,0.33196"
           style="fill:#cfcfcf;fill-opacity:1;fill-rule:evenodd;stroke:none;stroke-width:0.352778"
           id="path1261" />
        <path
           d="m -577.12742,111.40482 c -0.0956,-0.0931 -0.18979,-0.18521 -0.28469,-0.27728 0.36759,-0.37677 1.0287,-0.38735 1.40758,-0.004 -0.0928,0.0942 -0.18556,0.18838 -0.27834,0.28292 -0.28258,-0.21907 -0.56374,-0.21942 -0.84455,-0.002"
           style="fill:#cfcfcf;fill-opacity:1;fill-rule:evenodd;stroke:none;stroke-width:0.352778"
           id="path1263" />
        <path
           d="m -576.42977,111.54692 c -0.0938,0.0949 -0.18556,0.18768 -0.27622,0.2794 -0.0938,-0.0928 -0.18627,-0.1845 -0.2787,-0.27658 0.12065,-0.13264 0.39582,-0.15593 0.55492,-0.003"
           style="fill:#cfcfcf;fill-opacity:1;fill-rule:evenodd;stroke:none;stroke-width:0.352778"
           id="path1265" />
      </g>
      <g
         transform="translate(500)"
         id="g1275"
         style="fill:#cfcfcf;fill-opacity:1">
        <path
           id="path1269"
           style="opacity:0.399994;fill:#cfcfcf;fill-opacity:1;fill-rule:nonzero;stroke:none;stroke-width:0.352778"
           d="m -471.78474,111.53693 c 0,0.11818 -0.0963,0.21414 -0.21519,0.21414 h -2.45922 c -0.11853,0 -0.21484,-0.096 -0.21484,-0.21414 v -0.95532 c 0,-0.11783 0.0963,-0.21379 0.21484,-0.21379 h 2.45922 c 0.11888,0 0.21519,0.096 0.21519,0.21379 z m -0.21519,-1.31163 h -2.45922 c -0.19755,0 -0.35842,0.15981 -0.35842,0.35631 v 0.95532 c 0,0.1965 0.16087,0.35666 0.35842,0.35666 h 2.45922 c 0.1972,0 0.35806,-0.16016 0.35806,-0.35666 v -0.95532 c 0,-0.1965 -0.16086,-0.35631 -0.35806,-0.35631" />
        <path
           d="m -471.92772,111.53693 c 0,0.0395 -0.0325,0.072 -0.0723,0.072 h -2.45921 c -0.0399,0 -0.072,-0.0325 -0.072,-0.072 v -0.95532 c 0,-0.0395 0.0321,-0.0716 0.072,-0.0716 h 2.45921 c 0.0399,0 0.0723,0.0321 0.0723,0.0716 z"
           style="fill:#cfcfcf;fill-opacity:1;fill-rule:nonzero;stroke:none;stroke-width:0.352778"
           id="path1271" />
        <path
           d="m -471.299,111.05927 c 0,0.10619 -0.0864,0.19226 -0.19297,0.19226 v -0.38417 c 0.10654,0 0.19297,0.0857 0.19297,0.19191"
           style="fill:#cfcfcf;fill-opacity:1;fill-rule:nonzero;stroke:none;stroke-width:0.352778"
           id="path1273" />
      </g>
      <path
         style="color:#000000;font-style:normal;font-variant:normal;font-weight:normal;font-stretch:normal;font-size:medium;line-height:normal;font-family:sans-serif;font-variant-ligatures:normal;font-variant-position:normal;font-variant-caps:normal;font-variant-numeric:normal;font-variant-alternates:normal;font-variant-east-asian:normal;font-feature-settings:normal;font-variation-settings:normal;text-indent:0;text-align:start;text-decoration:none;text-decoration-line:none;text-decoration-style:solid;text-decoration-color:#000000;letter-spacing:normal;word-spacing:normal;text-transform:none;writing-mode:lr-tb;direction:ltr;text-orientation:mixed;dominant-baseline:auto;baseline-shift:baseline;text-anchor:start;white-space:normal;shape-padding:0;shape-margin:0;inline-size:0;clip-rule:nonzero;display:inline;overflow:visible;visibility:visible;isolation:auto;mix-blend-mode:normal;color-interpolation:sRGB;color-interpolation-filters:linearRGB;solid-color:#000000;solid-opacity:1;vector-effect:none;fill:#cfcfcf;fill-opacity:1;fill-rule:nonzero;stroke:none;stroke-width:0.705556;stroke-linecap:round;stroke-linejoin:round;stroke-miterlimit:10;stroke-dasharray:none;stroke-dashoffset:0;stroke-opacity:1;color-rendering:auto;image-rendering:auto;shape-rendering:auto;text-rendering:auto;enable-background:accumulate;stop-color:#000000"
         d="m -6.3165,223.15872 a 0.35277777,0.35277777 0 0 1 -0.35278,-0.35278 0.35277777,0.35277777 0 0 1 0.35278,-0.35278 h 19.7342 a 0.35277777,0.35277777 0 0 1 0.35277,0.35278 0.35277777,0.35277777 0 0 1 -0.35277,0.35278 z"
         id="path1277" />
    </g>
  </g>
</svg>
